<svg id="Layer_1" data-name="Layer 1" xmlns="http://www.w3.org/2000/svg" viewBox="0 0 1080 480"><defs><style>.cls-1{fill:#eee9e6;}</style></defs><path class="cls-1" d="M545.16,262.91a1.06,1.06,0,0,1,.6,1.36,6.38,6.38,0,0,1-1,2,20.28,20.28,0,0,1-1.28,1.72,2.32,2.32,0,0,0-.35.51,96.79,96.79,0,0,0-8.74,14.66q-3.71,7.68-7,15.63c-.9,2-1.78,4.09-2.63,6.13q-3,6.75-5.78,13.58-4.81,11.67-10.17,23.19a80,80,0,0,1-4.26,7.88,6.19,6.19,0,0,1-5.82,3.06,3.52,3.52,0,0,1-3.92-3,24.44,24.44,0,0,1-.78-5.4,159,159,0,0,1,.51-20.71q.61-7.17,1.12-14.27.51-7.68,1.21-15.37,1.51-17.49,3.33-35,2.13-20.06,4.42-40,4-33.82,7.1-67.84a27.37,27.37,0,0,0,.08-3.51c-.05-.92-.25-1.26-.6-1s-.89,1.32-1.61,3.26q-10.08,29-18.62,58.46c-.23.72-.43,1.43-.58,2.13q-5.12,17.49-10.36,34.87-1.94,6.75-4.5,13.68A99.45,99.45,0,0,1,469.72,272a5.25,5.25,0,0,1-2.64,2.42,7.55,7.55,0,0,1-3.69.41,3.74,3.74,0,0,1-3.14-2.06,11.28,11.28,0,0,1-1.05-3.84c-.15-1.6-.32-3.23-.5-4.88q-.66-5.43-1.09-10.83-1.2-15.09-3.16-30.29t-5.06-30q-.86-3.77-2.5.19a89.66,89.66,0,0,0-3.75,13.27q-2.08,9.3-4.44,21.43t-4.52,24.67q-2.16,12.54-4,22.94-2.71,16.14-3.65,20.56a32.11,32.11,0,0,1-2.13,6.05,3.24,3.24,0,0,1-1.73,1.71,5.22,5.22,0,0,1-2.46.27,3.67,3.67,0,0,1-3.34-3.14,19.77,19.77,0,0,1-.23-3q-.12-1.2-.12-2.4-.22-4.69-.31-9.47-.69-36.61.43-73.31.74-23.2,1.36-46.51v-5c-.05-1.58-.05-3.2,0-4.85a2.87,2.87,0,0,1,1.39-2.62,3.41,3.41,0,0,1,3.11.06,1.51,1.51,0,0,1,.95.75,3.66,3.66,0,0,1,.33,1.19,80.61,80.61,0,0,1,.54,12.8q-.12,3.84-.27,7.68-.27,10.52-.7,21-.5,13.55-.66,27-.19,10-.42,20-.28,10.59-.2,21.14,0,7.25-.08,14.7c0,.28,0,.72.1,1.32s.17,1.22.31,1.88a12.22,12.22,0,0,0,.43,1.57c.14.39.31.48.5.29a4.47,4.47,0,0,0,.56-1.92c.5-3.13,1.06-6.66,1.71-10.59q2.13-13.89,5.06-30.62t6.62-31.62q3.68-14.88,7.95-23.1,1.78-3,4.42-2.89t4.27,3.24a64.25,64.25,0,0,1,3.59,12.34q1.46,7.29,2.42,15.18t1.67,14.8q.34,3.76.7,6.83c.33,3.26.64,6.24.93,9q1,9.66,1.86,15t2.31,5.37q1.45,0,4-6.69t6.87-21.28q3.92-13.49,7.41-26,4.62-16.58,9.56-32.92t11.62-34.07a47.79,47.79,0,0,1,4.11-8.46c1.42-2.22,2.81-3.39,4.15-3.49a3,3,0,0,1,1.55.19,3,3,0,0,1,1.38,1.77,14.82,14.82,0,0,1,.68,4.87c.1,3.8,0,7.6-.23,11.42s-.56,7.62-.9,11.42a12,12,0,0,0-.07,1.28q-2.84,29.3-6.33,58.46-2.21,19-4.26,38a7.15,7.15,0,0,1-.08,1q-1.86,17.73-3.49,35.5-1.37,15.58-2.49,31.22c-.05.91-.1,1.85-.15,2.83q-.27,4-.35,8v2.84a1,1,0,0,0,.08.71c.1.2.33.29.7.29a.73.73,0,0,0,.36-.11.63.63,0,0,0,.3-.39q5.11-10.59,10-21.14,4.57-10.17,9.41-20.29t10.22-20.09a102.77,102.77,0,0,1,8.19-13.4Q543.37,262.49,545.16,262.91Z"/><path class="cls-1" d="M620.33,223c.52,0,.75.34.71,1.18s-.38,1.28-1,1.33a3,3,0,0,0-1.61.85,2.14,2.14,0,0,0-.72,1.56,45.09,45.09,0,0,1-1.93,14.52,70.64,70.64,0,0,1-5.73,13.46,103.7,103.7,0,0,1-17.21,24,93.39,93.39,0,0,1-23.7,17.67,68.6,68.6,0,0,1-15.39,5.85,54.93,54.93,0,0,1-16.42,1.45A31,31,0,0,1,524,301q-7.39-4.4-9.77-11.44t.88-15a43.09,43.09,0,0,1,10.81-14.39A97.33,97.33,0,0,1,543.07,248a168.21,168.21,0,0,1,20.39-9.87q10.6-4.29,20.45-7.31t17.5-4.59c1.39-.33,2.76-.63,4.11-.89s2.89-.54,4.29-.85c1.2-.21,1.63-.86,1.27-1.94a26.65,26.65,0,0,0-7.19-12.86,42.36,42.36,0,0,0-8.45-6.47,57.5,57.5,0,0,0-9.61-4.44,106.87,106.87,0,0,0-31.42-6.06c-.74-.07-1.49-.11-2.27-.11a1.35,1.35,0,0,0-1.38,1.42,27.2,27.2,0,0,0-.18,3.12q-.08,12.21-.07,24.47c0,3.59-.07,7.21-.07,10.84v2.23q-.39,3.51-3.65,2.45a1.73,1.73,0,0,1-1.35-1.67,32.62,32.62,0,0,1-.07-3.57q-.06-11.06-.07-22V197.93c0-.88,0-1.79-.07-2.73a3,3,0,0,0-.44-1.95,2.81,2.81,0,0,0-1.83-.53H541.8c-1-.07-2-.15-2.91-.25a1.94,1.94,0,0,1-1.7-1.31,2.19,2.19,0,0,1,.78-2.44c1-.83,2.13-1.63,3.26-2.41.47-.31.9-.57,1.27-.78a14,14,0,0,0,1.9-1.4,2.29,2.29,0,0,0,.71-1.24,14.12,14.12,0,0,0,.12-2.18,16.9,16.9,0,0,1-.1-2q.11-8.82.1-17.71V150.85c0-1.13,0-2.24.14-3.33.1-1.42.92-2.1,2.48-2.05a2.2,2.2,0,0,1,2.59,1.94c.09,1.37.14,2.76.14,4.15v10.59q0,6.48.11,12.86a3.89,3.89,0,0,0-.11.85,11.32,11.32,0,0,0,.57,4.14q5.13-3,12.41-7.52t14.84-9.78a135,135,0,0,0,13.41-10.45q5.85-5.22,8.11-9.65,2.42-5.07-2.19-8.33-5.67-3.83-14.67-4.18a72.67,72.67,0,0,0-19,1.92,90.24,90.24,0,0,0-18.56,6.3,46.58,46.58,0,0,0-13.54,9.1,19.6,19.6,0,0,0-2.81,4,24.55,24.55,0,0,0-2,4.56,2.44,2.44,0,0,1-2.09,1.64,2.9,2.9,0,0,1-2.65-.87,2,2,0,0,1-.32-1.7,13.22,13.22,0,0,1,2.44-4.85q5.52-7.08,15.69-12.38a92.26,92.26,0,0,1,22.05-8,84.44,84.44,0,0,1,22.57-2.27q10.68.47,17.23,4.85,6.69,4.58,2.87,11.76a31.5,31.5,0,0,1-5.72,7.28,94.78,94.78,0,0,1-8,7q-4.26,3.31-7.55,5.72-6,4.35-12.29,8.38t-12.72,7.84a2.85,2.85,0,0,0-.32.21q-3.18,1.82-6.23,3.76a3.64,3.64,0,0,0-1.31,4.36,1.23,1.23,0,0,0,.35.51.84.84,0,0,0,.57.27,13.58,13.58,0,0,0,2.51.24h.22a113.09,113.09,0,0,1,32.83,5.78,59.61,59.61,0,0,1,16.51,8.18,35.75,35.75,0,0,1,7.83,7.47,28.8,28.8,0,0,1,4.78,9.67,3.64,3.64,0,0,0,1.15,2.16A4.84,4.84,0,0,0,620.33,223Zm-8.4,8.89c.21-2.13.06-3.43-.46-3.9s-1.85-.45-4,.07q-7.62,1.56-17.2,4.38t-19.71,6.87a163.68,163.68,0,0,0-19.48,9.31,92,92,0,0,0-16.49,11.69,44.14,44.14,0,0,0-10.72,14.12,24.52,24.52,0,0,0-2.35,11,17.72,17.72,0,0,0,2.65,9,13.23,13.23,0,0,0,6.4,5.34,32.21,32.21,0,0,0,10.52,2.12,3.17,3.17,0,0,0,.71-.07,11.54,11.54,0,0,1,1.55-.11,54.42,54.42,0,0,0,19.42-5.59,90.8,90.8,0,0,0,28.1-21.27A100.47,100.47,0,0,0,609,244.61,47.11,47.11,0,0,0,611.93,231.9Z"/><path class="cls-1" d="M101.84,236V221.45h-.19l-7,11.68H93.11l-7-11.68h-.19V236H80.59V211h5.24L94,224.66h.08L102.26,211h5.1v25Z"/><path class="cls-1" d="M160.59,225.28h-9.23v6h16.23V236H145.88V211h20.83v4.75H151.36v4.87h9.23Z"/><path class="cls-1" d="M209.22,211v20.3h14.71V236H203.75V211Z"/><path class="cls-1" d="M264.71,211v20.3h14.71V236H259.24V211Z"/><path class="cls-1" d="M326.41,210.19c7.92,0,14.28,5.93,14.28,13.21,0,7.43-6.36,13.33-14.28,13.33s-14.14-5.9-14.14-13.33C312.27,216.12,318.48,210.19,326.41,210.19Zm0,21.83a8.54,8.54,0,1,0,0-17.08A8.4,8.4,0,0,0,318,223.4,8.49,8.49,0,0,0,326.41,232Z"/><path class="cls-1" d="M692.32,236V211h15c3.11,0,5.33,1,6.71,2.42a5.38,5.38,0,0,1,1.57,3.75,5.78,5.78,0,0,1-3.14,5,6.25,6.25,0,0,1,4.48,6.2,7.33,7.33,0,0,1-2.34,5.36c-1.53,1.46-3.41,2.26-6.82,2.26Zm5.52-20.45V221h8.8a3.23,3.23,0,0,0,2.42-.81,2.88,2.88,0,0,0,.84-2,2.51,2.51,0,0,0-.77-1.8,3.11,3.11,0,0,0-2.49-.84Zm0,9.61v6.32h9.72a3.92,3.92,0,0,0,2.76-1,3.23,3.23,0,0,0,.88-2.18,3.1,3.1,0,0,0-.88-2.11,3.73,3.73,0,0,0-2.76-1.07Z"/><path class="cls-1" d="M753.82,236V211h5.48v25Z"/><path class="cls-1" d="M815.52,217.39a15.19,15.19,0,0,0-8.77-2.68c-2.49,0-4.71.92-4.71,3.06s3.29,2.37,6.55,2.64c4.55.31,11.68.84,11.68,7.74,0,6.16-5.14,8.58-11.26,8.58a21,21,0,0,1-13.75-4.94l3.1-3.76a16.9,16.9,0,0,0,10.72,4.21c3.18,0,5.71-1.22,5.71-3.56s-2.57-3-6.32-3.25c-5.48-.35-11.91-1-11.91-7.32,0-6.05,5.63-7.92,10.34-7.92a22.11,22.11,0,0,1,11.76,3.37Z"/><path class="cls-1" d="M853.47,211h23.59v4.75h-9V236h-5.48V215.7h-9.07Z"/><path class="cls-1" d="M912.63,236V211H926.5c3.56,0,5.89,1,7.5,2.72a7.48,7.48,0,0,1,2.07,5.17c0,3.22-2,5.71-5.05,7L936.88,236h-6.29l-5.05-9.19h-7.43V236Zm5.48-20.37v6.55h9a3.34,3.34,0,0,0,3.49-3.3,3,3,0,0,0-.88-2.18,3.75,3.75,0,0,0-3-1.07Z"/><path class="cls-1" d="M985.13,210.19c7.92,0,14.28,5.93,14.28,13.21,0,7.43-6.36,13.33-14.28,13.33S971,230.83,971,223.4C971,216.12,977.2,210.19,985.13,210.19Zm0,21.83a8.54,8.54,0,1,0,0-17.08,8.4,8.4,0,0,0-8.39,8.46A8.49,8.49,0,0,0,985.13,232Z"/></svg>