<svg id="Layer_1" data-name="Layer 1" xmlns="http://www.w3.org/2000/svg" viewBox="0 0 680 640"><defs><style>.cls-1{fill:#31322d;}</style></defs><path class="cls-1" d="M383.83,357.66a1.74,1.74,0,0,1,1,2.24,10.64,10.64,0,0,1-1.56,3.22c-.76,1.12-1.47,2.07-2.1,2.83a3.42,3.42,0,0,0-.58.83,159.34,159.34,0,0,0-14.38,24.11q-6.09,12.63-11.44,25.7-2.24,5-4.34,10.07-4.92,11.1-9.5,22.32-7.92,19.2-16.71,38.14a129.75,129.75,0,0,1-7,12.94q-3.12,5.18-9.56,5-5.29.13-6.44-4.91a38.83,38.83,0,0,1-1.28-8.86,259.66,259.66,0,0,1,.83-34.06q1-11.79,1.85-23.46.82-12.63,2-25.26,2.49-28.76,5.48-57.52,3.51-33,7.27-65.75,6.57-55.6,11.67-111.53a47.49,47.49,0,0,0,.13-5.77c-.09-1.51-.41-2.07-1-1.69s-1.46,2.17-2.65,5.36q-16.58,47.7-30.61,96.1c-.38,1.19-.7,2.36-.95,3.51q-8.42,28.75-17,57.32-3.18,11.1-7.4,22.48a161.45,161.45,0,0,1-9.69,21.46,8.55,8.55,0,0,1-4.34,4,12.56,12.56,0,0,1-6.05.67,6.18,6.18,0,0,1-5.17-3.38,18.63,18.63,0,0,1-1.72-6.32c-.26-2.63-.53-5.31-.83-8q-1.08-8.93-1.79-17.79-2-24.81-5.19-49.81t-8.32-49.36q-1.41-6.18-4.12.32t-6.15,21.81q-3.45,15.31-7.3,35.24t-7.43,40.55q-3.57,20.64-6.57,37.72-4.47,26.53-6,33.8a52.57,52.57,0,0,1-3.5,9.95,5.33,5.33,0,0,1-2.84,2.81,8.54,8.54,0,0,1-4,.44A6,6,0,0,1,173,420a30.87,30.87,0,0,1-.39-4.91c-.12-1.32-.19-2.64-.19-4q-.37-7.71-.51-15.56-1.14-60.19.7-120.52,1.22-38.14,2.24-76.46v-8.29c-.09-2.6-.09-5.25,0-8,.08-2.09.84-3.52,2.29-4.31a5.6,5.6,0,0,1,5.1.1,2.45,2.45,0,0,1,1.56,1.24,6.08,6.08,0,0,1,.55,1.95,134.66,134.66,0,0,1,.89,21q-.19,6.31-.45,12.63-.44,17.28-1.14,34.56-.84,22.26-1.09,44.45-.31,16.38-.7,32.84-.45,17.42-.32,34.75,0,11.93-.13,24.17c0,.47.06,1.19.16,2.17s.28,2,.51,3.09a22,22,0,0,0,.7,2.59c.24.63.51.79.83.47a7.51,7.51,0,0,0,.93-3.15q1.22-7.72,2.8-17.41,3.51-22.83,8.33-50.35t10.87-52q6.06-24.45,13.07-38,2.94-4.91,7.27-4.75t7,5.33a106.54,106.54,0,0,1,5.9,20.28q2.38,12,4,25t2.74,24.33q.59,6.19,1.15,11.23.82,8,1.53,14.73,1.66,15.87,3.06,24.71t3.8,8.83q2.39,0,6.53-11t11.29-35q6.44-22.19,12.18-42.79,7.59-27.23,15.72-54.11t19.1-56a78.5,78.5,0,0,1,6.76-13.9q3.51-5.49,6.82-5.74a4.81,4.81,0,0,1,2.55.32c.85.34,1.61,1.3,2.27,2.9s1,4.26,1.11,8q.26,9.38-.38,18.78t-1.47,18.78a20.51,20.51,0,0,0-.12,2.11q-4.67,48.15-10.4,96.1-3.63,31.31-7,62.56a12.1,12.1,0,0,1-.13,1.59q-3.06,29.15-5.74,58.35-2.23,25.64-4.08,51.34c-.09,1.48-.17,3-.26,4.65-.29,4.38-.49,8.76-.57,13.14v4.65a1.74,1.74,0,0,0,.13,1.18c.17.32.55.48,1.15.48a1.28,1.28,0,0,0,.6-.19,1,1,0,0,0,.48-.64Q321,471,329,453.64q7.53-16.71,15.47-33.35t16.8-33a169.5,169.5,0,0,1,13.46-22Q380.9,357,383.83,357.66Z"/><path class="cls-1" d="M507.4,292.06q1.29-.12,1.17,1.95c-.08,1.38-.62,2.11-1.63,2.19a4.83,4.83,0,0,0-2.65,1.39,3.52,3.52,0,0,0-1.2,2.57A73.45,73.45,0,0,1,499.92,324a116.39,116.39,0,0,1-9.4,22.13,170.9,170.9,0,0,1-28.31,39.37,154.27,154.27,0,0,1-38.95,29.06,112.9,112.9,0,0,1-25.31,9.6,90.24,90.24,0,0,1-27,2.39,51,51,0,0,1-21.89-6.23q-12.18-7.22-16.08-18.81t1.46-24.63q5.64-12.71,17.76-23.64a160.1,160.1,0,0,1,28.19-20.12,274,274,0,0,1,33.51-16.22q17.44-7.05,33.63-12t28.77-7.54q3.44-.81,6.75-1.46c2.41-.42,4.76-.89,7.05-1.39q3-.52,2.09-3.21a43.9,43.9,0,0,0-11.82-21.13,69.27,69.27,0,0,0-13.89-10.63,94.76,94.76,0,0,0-15.81-7.31,175.65,175.65,0,0,0-51.65-10c-1.2-.11-2.45-.17-3.73-.17a2.22,2.22,0,0,0-2.27,2.33,46.11,46.11,0,0,0-.29,5.12q-.12,20.08-.12,40.24-.11,8.85-.11,17.82v3.67q-.64,5.76-6,4a2.82,2.82,0,0,1-2.21-2.74,47.93,47.93,0,0,1-.12-5.88q-.12-18.17-.12-36.22V250.83c0-1.43,0-2.93-.11-4.48s-.24-2.7-.73-3.2a4.58,4.58,0,0,0-3-.88H378.3c-1.63-.11-3.22-.25-4.78-.41a3.19,3.19,0,0,1-2.79-2.15,3.62,3.62,0,0,1,1.28-4c1.71-1.36,3.49-2.68,5.36-4,.77-.5,1.47-.93,2.09-1.28a23.36,23.36,0,0,0,3.12-2.3,3.61,3.61,0,0,0,1.16-2,21.79,21.79,0,0,0,.21-3.58,26.42,26.42,0,0,1-.18-3.32q.18-14.51.18-29.12V173.44c0-1.86.08-3.69.23-5.47q.24-3.5,4.08-3.38,3.72-.12,4.25,3.2.23,3.38.23,6.81V192q0,10.65.18,21.13a6.18,6.18,0,0,0-.18,1.4,19,19,0,0,0,.93,6.82q8.44-4.91,20.41-12.38t24.4-16.07a225.27,225.27,0,0,0,22-17.18q9.6-8.6,13.33-15.87,4-8.33-3.61-13.68-9.31-6.3-24.11-6.88a119.83,119.83,0,0,0-31.21,3.15,148.66,148.66,0,0,0-30.52,10.36q-14.09,6.65-22.24,15a32.3,32.3,0,0,0-4.63,6.49,40.24,40.24,0,0,0-3.23,7.49,4,4,0,0,1-3.44,2.7,4.85,4.85,0,0,1-4.37-1.42,3.44,3.44,0,0,1-.52-2.8,22,22,0,0,1,4-8q9.08-11.64,25.8-20.35a151.49,151.49,0,0,1,36.25-13.19A139.14,139.14,0,0,1,449.14,135q17.57.76,28.33,8,11,7.52,4.72,19.34a51.82,51.82,0,0,1-9.41,12,152.24,152.24,0,0,1-13.19,11.53q-7,5.44-12.4,9.41Q437.35,202.38,427,209t-20.9,12.9a3,3,0,0,0-.53.35q-5.24,3-10.25,6.17-3.54,2.68-2.15,7.16a1.93,1.93,0,0,0,.58.85,1.38,1.38,0,0,0,.93.44,21.82,21.82,0,0,0,4.14.4h.35a186.19,186.19,0,0,1,54,9.5,98.41,98.41,0,0,1,27.14,13.45,59.32,59.32,0,0,1,12.87,12.28,47.43,47.43,0,0,1,7.86,15.9c.54,1.94,1.17,3.13,1.89,3.55S505.11,292.41,507.4,292.06Zm-13.8,14.62c.35-3.5.1-5.63-.75-6.41s-3.05-.73-6.59.12Q473.75,303,458,307.58t-32.4,11.3a269.27,269.27,0,0,0-32,15.31,150.62,150.62,0,0,0-27.11,19.22,72.49,72.49,0,0,0-17.62,23.21A40.46,40.46,0,0,0,345,394.76a29.07,29.07,0,0,0,4.37,14.73,21.71,21.71,0,0,0,10.51,8.76,52.64,52.64,0,0,0,17.29,3.5,5.26,5.26,0,0,0,1.17-.12,20,20,0,0,1,2.56-.17,89.54,89.54,0,0,0,31.91-9.2,148.9,148.9,0,0,0,46.21-35,165,165,0,0,0,29.85-49.71A77.47,77.47,0,0,0,493.6,306.68Z"/></svg>